<svg width="18" height="29" viewBox="0 0 18 29" fill="none" xmlns="http://www.w3.org/2000/svg">
<path d="M11.8999 21.2547C13.0999 22.4547 14.2999 23.4545 15.3999 24.5545C16.5999 25.7545 16.5999 27.0549 15.6999 27.9549C14.7999 28.8549 13.5 28.7545 12.3 27.5545C11.2 26.4545 10.0999 25.3545 8.89993 24.0545C7.69993 25.2545 6.59991 26.3549 5.49991 27.4549C4.29991 28.6549 2.99988 28.8549 2.09988 27.9549C1.09988 27.0549 1.09993 25.6548 2.39993 24.3548C3.49993 23.2548 4.59996 22.2546 5.79996 21.1546C4.49996 20.5546 3.39993 20.1545 2.39993 19.5545C0.999932 18.7545 0.499859 17.4548 1.19986 16.3548C1.89986 15.2548 3.09991 14.9547 4.49991 15.7547C7.49991 17.3547 10.3999 17.3547 13.3999 15.7547C14.8999 14.9547 16.1 15.2549 16.8 16.4549C17.4 17.6549 16.9999 18.8546 15.4999 19.6546C14.2999 20.2546 13.1999 20.6547 11.8999 21.2547Z" fill="#292F3E"/>
<path d="M8.79982 15.2549C4.89982 15.2549 1.59977 12.0547 1.49977 8.05469C1.39977 4.15469 4.69975 0.854883 8.59975 0.754883C12.5997 0.754883 15.9998 3.95508 15.8998 7.95508C15.9998 12.0551 12.6998 15.2549 8.79982 15.2549ZM11.4998 8.25488C11.5998 6.65488 10.3998 5.35488 8.79982 5.25488C7.29982 5.15488 6.09977 6.25488 5.99977 7.75488C5.89977 9.35488 6.99975 10.755 8.59975 10.855C10.0997 10.955 11.3998 9.85488 11.4998 8.25488Z" fill="#292F3E"/>
</svg>
