<svg width="140" height="56" viewBox="0 0 140 56" fill="none" xmlns="http://www.w3.org/2000/svg">
<path d="M0.569064 49.0684H1.067V54.0477H0.569064V49.0684ZM5.40944 49.0684H5.90737V54.0477H5.48058L2.70639 49.9931V54.0477H2.20846V49.0684H2.63526L5.40944 53.123V49.0684ZM10.1731 49.0684V49.5379H8.64377V54.0477H8.14584V49.5379H6.61648V49.0684H10.1731ZM11.3827 53.5783H13.8012V54.0477H10.8847V49.0684H13.7656V49.5379H11.3827V51.302H13.5878V51.7715H11.3827V53.5783ZM15.1547 53.5783H17.4309V54.0477H14.6567V49.0684H15.1547V53.5783ZM18.6418 53.5783H20.9181V54.0477H18.1439V49.0684H18.6418V53.5783ZM22.129 53.5783H24.5476V54.0477H21.6311V49.0684H24.512V49.5379H22.129V51.302H24.3342V51.7715H22.129V53.5783ZM27.6944 54.1331C26.9404 54.1331 26.3168 53.8841 25.8236 53.3862C25.3304 52.8883 25.0838 52.2789 25.0838 51.5581C25.0838 50.8373 25.3304 50.2279 25.8236 49.73C26.3168 49.232 26.9404 48.9831 27.6944 48.9831C28.1544 48.9831 28.5765 49.0945 28.9606 49.3174C29.3447 49.5355 29.6411 49.8319 29.8497 50.2065L29.4087 50.4626C29.2522 50.1591 29.0199 49.9173 28.7116 49.7371C28.4034 49.5569 28.0643 49.4668 27.6944 49.4668C27.0732 49.4668 26.5658 49.6683 26.1722 50.0714C25.7786 50.4745 25.5818 50.97 25.5818 51.5581C25.5818 52.1461 25.7786 52.6417 26.1722 53.0448C26.5658 53.4478 27.0732 53.6494 27.6944 53.6494C28.0643 53.6494 28.4034 53.5593 28.7116 53.3791C29.0199 53.1989 29.2522 52.957 29.4087 52.6535L29.8497 52.9025C29.6458 53.2771 29.3494 53.5759 28.9606 53.7988C28.5765 54.0216 28.1544 54.1331 27.6944 54.1331ZM33.729 49.0684V49.5379H32.1996V54.0477H31.7017V49.5379H30.1723V49.0684H33.729ZM37.5562 53.6494C37.2148 53.9719 36.769 54.1331 36.2189 54.1331C35.6688 54.1331 35.2231 53.9719 34.8816 53.6494C34.5402 53.3269 34.3695 52.8954 34.3695 52.3548V49.0684H34.8674V52.3548C34.8674 52.7531 34.9859 53.0685 35.2231 53.3008C35.4602 53.5332 35.7921 53.6494 36.2189 53.6494C36.6457 53.6494 36.9777 53.5332 37.2148 53.3008C37.4519 53.0685 37.5704 52.7531 37.5704 52.3548V49.0684H38.0684V52.3548C38.0684 52.8954 37.8977 53.3269 37.5562 53.6494ZM42.3124 54.0477L41.85 52.8242H39.4884L39.026 54.0477H38.4996L40.4131 49.0684H40.9253L42.8387 54.0477H42.3124ZM39.6662 52.3548H41.6722L40.6692 49.6873L39.6662 52.3548ZM43.976 53.5783H46.2523V54.0477H43.4781V49.0684H43.976V53.5783ZM50.6642 49.0684C51.3423 49.0684 51.9019 49.3103 52.3429 49.794C52.7887 50.2729 53.0116 50.861 53.0116 51.5581C53.0116 52.2552 52.7887 52.8456 52.3429 53.3293C51.9019 53.8082 51.3423 54.0477 50.6642 54.0477H48.7436V49.0684H50.6642ZM50.6642 53.5783C51.2096 53.5783 51.6553 53.3838 52.0015 52.995C52.3524 52.6061 52.5279 52.1271 52.5279 51.5581C52.5279 50.989 52.3524 50.51 52.0015 50.1212C51.6553 49.7323 51.2096 49.5379 50.6642 49.5379H49.2415V53.5783H50.6642ZM54.3612 53.5783H56.7797V54.0477H53.8632V49.0684H56.7441V49.5379H54.3612V51.302H56.5663V51.7715H54.3612V53.5783ZM60.694 54.0477L59.5274 52.056H58.1332V54.0477H57.6352V49.0684H59.627C60.0395 49.0684 60.3905 49.2154 60.6797 49.5094C60.9737 49.7987 61.1208 50.1496 61.1208 50.5622C61.1208 50.8989 61.0188 51.2 60.8149 51.4656C60.6157 51.7264 60.3596 51.9019 60.0466 51.992L61.263 54.0477H60.694ZM58.1332 49.5379V51.5865H59.627C59.902 51.5865 60.1367 51.4869 60.3312 51.2878C60.5256 51.0839 60.6228 50.842 60.6228 50.5622C60.6228 50.2777 60.5256 50.0358 60.3312 49.8367C60.1367 49.6375 59.902 49.5379 59.627 49.5379H58.1332ZM66.5294 49.0684V54.0477H66.0314V49.8224L64.2887 52.7389H64.2175L62.4748 49.8224V54.0477H61.9768V49.0684H62.5957L64.2531 51.8426L65.9105 49.0684H66.5294ZM70.9809 54.0477L70.5185 52.8242H68.1569L67.6946 54.0477H67.1682L69.0816 49.0684H69.5938L71.5073 54.0477H70.9809ZM68.3348 52.3548H70.3407L69.3377 49.6873L68.3348 52.3548ZM74.2921 54.1331C73.5381 54.1331 72.9145 53.8841 72.4213 53.3862C71.9281 52.8883 71.6815 52.2789 71.6815 51.5581C71.6815 50.8373 71.9281 50.2279 72.4213 49.73C72.9145 49.232 73.5381 48.9831 74.2921 48.9831C74.7521 48.9831 75.1741 49.0945 75.5583 49.3174C75.9424 49.5355 76.2388 49.8319 76.4474 50.2065L76.0064 50.4626C75.8499 50.1591 75.6175 49.9173 75.3093 49.7371C75.001 49.5569 74.662 49.4668 74.2921 49.4668C73.6709 49.4668 73.1634 49.6683 72.7698 50.0714C72.3762 50.4745 72.1794 50.97 72.1794 51.5581C72.1794 52.1461 72.3762 52.6417 72.7698 53.0448C73.1634 53.4478 73.6709 53.6494 74.2921 53.6494C74.662 53.6494 75.001 53.5593 75.3093 53.3791C75.6175 53.1989 75.8499 52.957 76.0064 52.6535L76.4474 52.9025C76.2435 53.2771 75.9471 53.5759 75.5583 53.7988C75.1741 54.0216 74.7521 54.1331 74.2921 54.1331ZM81.3849 53.3862C80.8869 53.8841 80.2776 54.1331 79.5568 54.1331C78.8359 54.1331 78.2266 53.8841 77.7286 53.3862C77.2307 52.8835 76.9817 52.2741 76.9817 51.5581C76.9817 50.842 77.2307 50.235 77.7286 49.7371C78.2266 49.2344 78.8359 48.9831 79.5568 48.9831C80.2776 48.9831 80.8869 49.2344 81.3849 49.7371C81.8828 50.235 82.1318 50.842 82.1318 51.5581C82.1318 52.2741 81.8828 52.8835 81.3849 53.3862ZM78.0772 53.0448C78.4755 53.4478 78.9687 53.6494 79.5568 53.6494C80.1448 53.6494 80.638 53.4478 81.0363 53.0448C81.4347 52.6369 81.6338 52.1414 81.6338 51.5581C81.6338 50.9748 81.4347 50.4816 81.0363 50.0785C80.638 49.6707 80.1448 49.4668 79.5568 49.4668C78.9687 49.4668 78.4755 49.6707 78.0772 50.0785C77.6788 50.4816 77.4797 50.9748 77.4797 51.5581C77.4797 52.1414 77.6788 52.6369 78.0772 53.0448ZM84.3676 54.1331C83.9124 54.1331 83.5211 54.0264 83.1939 53.813C82.8715 53.5948 82.6462 53.2961 82.5182 52.9167L82.945 52.6677C83.0351 52.976 83.201 53.2178 83.4429 53.3933C83.6847 53.564 83.9954 53.6494 84.3747 53.6494C84.7446 53.6494 85.0315 53.5688 85.2354 53.4075C85.4441 53.2416 85.5484 53.0234 85.5484 52.7531C85.5484 52.4923 85.4536 52.2955 85.2639 52.1627C85.0742 52.0299 84.7612 51.8924 84.3249 51.7501C83.808 51.5794 83.4666 51.4419 83.3006 51.3376C82.9213 51.1099 82.7316 50.7804 82.7316 50.3488C82.7316 49.9268 82.8786 49.5948 83.1726 49.353C83.4666 49.1064 83.8294 48.9831 84.2609 48.9831C84.6498 48.9831 84.9865 49.085 85.271 49.2889C85.5555 49.4881 85.7666 49.7442 85.9041 50.0572L85.4844 50.2919C85.2568 49.7418 84.849 49.4668 84.2609 49.4668C83.9527 49.4668 83.7037 49.5426 83.514 49.6944C83.3243 49.8461 83.2295 50.0572 83.2295 50.3275C83.2295 50.5741 83.3149 50.759 83.4856 50.8823C83.6563 51.0056 83.9385 51.1313 84.3321 51.2593C84.5123 51.321 84.6403 51.366 84.7162 51.3945C84.7968 51.4182 84.9106 51.4609 85.0576 51.5225C85.2094 51.5794 85.3208 51.6316 85.3919 51.679C85.4631 51.7217 85.5484 51.7833 85.648 51.8639C85.7523 51.9398 85.8259 52.0181 85.8685 52.0987C85.916 52.1746 85.9563 52.2694 85.9895 52.3832C86.0274 52.4923 86.0464 52.6108 86.0464 52.7389C86.0464 53.1609 85.8922 53.5 85.584 53.7561C85.2758 54.0074 84.8703 54.1331 84.3676 54.1331ZM91.419 49.0684V54.0477H90.921V49.8224L89.1783 52.7389H89.1071L87.3644 49.8224V54.0477H86.8665V49.0684H87.4853L89.1427 51.8426L90.8001 49.0684H91.419ZM93.0536 53.5783H95.4722V54.0477H92.5557V49.0684H95.4366V49.5379H93.0536V51.302H95.2588V51.7715H93.0536V53.5783ZM99.4575 49.0684V49.5379H97.9282V54.0477H97.4303V49.5379H95.9009V49.0684H99.4575ZM100.169 49.0684H100.667V54.0477H100.169V49.0684ZM104.135 54.1331C103.381 54.1331 102.757 53.8841 102.264 53.3862C101.771 52.8883 101.524 52.2789 101.524 51.5581C101.524 50.8373 101.771 50.2279 102.264 49.73C102.757 49.232 103.381 48.9831 104.135 48.9831C104.595 48.9831 105.017 49.0945 105.401 49.3174C105.785 49.5355 106.081 49.8319 106.29 50.2065L105.849 50.4626C105.692 50.1591 105.46 49.9173 105.152 49.7371C104.844 49.5569 104.504 49.4668 104.135 49.4668C103.513 49.4668 103.006 49.6683 102.612 50.0714C102.219 50.4745 102.022 50.97 102.022 51.5581C102.022 52.1461 102.219 52.6417 102.612 53.0448C103.006 53.4478 103.513 53.6494 104.135 53.6494C104.504 53.6494 104.844 53.5593 105.152 53.3791C105.46 53.1989 105.692 52.957 105.849 52.6535L106.29 52.9025C106.086 53.2771 105.79 53.5759 105.401 53.7988C105.017 54.0216 104.595 54.1331 104.135 54.1331Z" fill="white"/>
<path d="M15.9609 43.3353H13.3901L4.11706 33.7868V43.3353H2.18896V23.6874H4.11706V32.685L13.0228 23.6874H15.5936L6.1369 33.2359L15.9609 43.3353Z" fill="white"/>
<path d="M33.4053 40.7647C31.4773 42.7846 28.9984 43.7027 26.1522 43.7027C23.306 43.7027 20.9188 42.6928 18.899 40.7647C16.9709 38.7448 15.9609 36.3577 15.9609 33.5115C15.9609 30.6653 16.9709 28.2782 18.899 26.2583C20.827 24.2384 23.306 23.3203 26.1522 23.3203C28.9984 23.3203 31.3855 24.3302 33.4053 26.2583C35.3334 28.2782 36.3434 30.6653 36.3434 33.5115C36.3434 36.3577 35.4252 38.7448 33.4053 40.7647ZM20.3679 39.3875C21.9287 40.9483 23.8568 41.7747 26.244 41.7747C28.5393 41.7747 30.5592 40.9483 32.12 39.3875C33.6808 37.8267 34.5071 35.8068 34.5071 33.5115C34.5071 31.2162 33.6808 29.2881 32.12 27.6355C30.5592 26.0747 28.6311 25.2484 26.244 25.2484C23.9486 25.2484 21.9287 26.0747 20.3679 27.6355C18.8071 29.1963 17.9808 31.2162 17.9808 33.5115C17.9808 35.8068 18.8071 37.7349 20.3679 39.3875Z" fill="white"/>
<path d="M46.9936 23.6874C49.6562 23.6874 51.8597 24.6055 53.6041 26.5336C55.3486 28.4616 56.2667 30.757 56.2667 33.5113C56.2667 36.2657 55.3486 38.561 53.6041 40.4891C51.8597 42.4172 49.6562 43.3353 46.9936 43.3353H39.3732V23.6874H46.9936ZM46.9936 41.499C49.1053 41.499 50.9416 40.7645 52.3188 39.2037C53.696 37.6429 54.4305 35.8066 54.4305 33.5113C54.4305 31.216 53.696 29.3798 52.3188 27.8189C50.9416 26.2581 49.1971 25.5236 46.9936 25.5236H41.3931V41.499H46.9936V41.499Z" fill="white"/>
<path d="M87.2994 43.3353L82.7088 35.4394H77.2V43.3353H75.272V23.6874H83.1678C84.8205 23.6874 86.1976 24.2383 87.3912 25.4318C88.5848 26.6254 89.1357 28.0026 89.1357 29.6552C89.1357 31.0324 88.7684 32.1341 87.9421 33.2359C87.1158 34.2458 86.1059 34.9803 84.9123 35.3476L89.6865 43.5189H87.2994V43.3353ZM77.1082 25.5236V33.6031H82.9842C84.086 33.6031 85.0041 33.2359 85.7386 32.4096C86.4731 31.5833 86.9321 30.6651 86.9321 29.5634C86.9321 28.4616 86.5649 27.4517 85.7386 26.7172C85.0041 25.8909 84.086 25.5236 82.9842 25.5236H77.1082Z" fill="white"/>
<path d="M109.977 23.6874V43.4271H107.957V26.6254L101.071 38.1938H100.796L93.91 26.6254V43.3353H91.9819V23.6874H94.4609L100.98 34.7049L107.498 23.6874H109.977Z" fill="white"/>
<path d="M113.558 23.6874H115.486V43.4271H113.558V23.6874Z" fill="white"/>
<path d="M133.481 43.3354H131.186L125.861 34.8887L120.535 43.3354H118.24L124.667 33.1442L118.607 23.5957H120.811L125.769 31.3998L130.727 23.5957H132.93L126.87 33.1442L133.481 43.3354Z" fill="white"/>
<path d="M60.9495 34.3376H67.0091L65.6319 32.5014H60.9495V26.0745L59.1132 23.6874H58.9296V43.3353H70.498V41.499H60.9495V34.3376Z" fill="white"/>
<path d="M62.3264 13.8636C62.3264 14.3226 62.6937 14.7817 63.2445 14.7817C63.6118 14.7817 63.8873 14.5981 64.0709 14.2308H74.3539L72.8849 14.7817C73.1603 15.149 73.7112 15.4244 74.1703 15.4244C75.0884 15.4244 75.8229 14.6899 75.8229 13.7718C75.8229 12.8536 75.0884 12.1191 74.1703 12.1191C73.4358 12.1191 72.7013 12.67 72.6094 13.4045H69.2124H64.5299H63.2445L63.8872 13.1291C63.7036 12.9455 63.52 12.8536 63.2445 12.8536C62.7855 12.9455 62.3264 13.3127 62.3264 13.8636Z" fill="#B5D9E2"/>
<path d="M71.5993 11.1093C70.9566 11.1093 70.4976 10.7421 70.2221 10.283L71.5993 9.82396H66.1823C65.9987 9.82396 65.8151 9.64033 65.8151 9.4567C65.8151 9.27308 65.9987 9.08945 66.1823 9.08945H70.0385C70.2221 8.35495 70.8648 7.80408 71.5993 7.80408C72.5174 7.80408 73.2519 8.53858 73.2519 9.4567C73.2519 10.3748 72.5174 11.1093 71.5993 11.1093Z" fill="#B5D9E2"/>
<path d="M68.3859 6.88588C69.1972 6.88588 69.8549 6.22819 69.8549 5.41688C69.8549 4.60557 69.1972 3.94788 68.3859 3.94788C67.5746 3.94788 66.9169 4.60557 66.9169 5.41688C66.9169 6.22819 67.5746 6.88588 68.3859 6.88588Z" fill="#B5D9E2"/>
<path d="M65.907 1.83625C66.4141 1.83625 66.8251 1.42519 66.8251 0.918127C66.8251 0.411059 66.4141 0 65.907 0C65.4 0 64.9889 0.411059 64.9889 0.918127C64.9889 1.42519 65.4 1.83625 65.907 1.83625Z" fill="#B5D9E2"/>
<path d="M61.9591 23.9631C61.9591 24.8812 62.6936 25.6157 63.6117 25.6157C64.3462 25.6157 65.0807 25.0648 65.1725 24.3303H68.5696H70.1304H71.4158L70.6813 24.5139C70.8649 24.6976 71.0485 24.7894 71.324 24.7894C71.783 24.7894 72.2421 24.4221 72.2421 23.8712C72.2421 23.4122 71.8748 22.9531 71.324 22.9531C70.9567 22.9531 70.6813 23.1367 70.4977 23.504H63.3363L64.8053 22.9531C64.5298 22.5859 63.9789 22.3104 63.5199 22.3104C62.6936 22.3104 61.9591 23.0449 61.9591 23.9631Z" fill="#B5D9E2"/>
<path d="M66.1826 26.8091C66.8253 26.8091 67.2844 27.1763 67.5598 27.6354L66.1826 28.0945H71.5996C71.7832 28.0945 71.9668 28.2781 71.9668 28.4617C71.9668 28.6453 71.7832 28.829 71.5996 28.829H67.7435C67.5598 29.5635 66.9171 30.1143 66.1826 30.1143C65.2645 30.1143 64.53 29.3798 64.53 28.4617C64.53 27.5436 65.2645 26.8091 66.1826 26.8091Z" fill="#B5D9E2"/>
<path d="M69.3959 31.0327C70.2222 31.0327 70.8648 31.6754 70.8648 32.5017C70.8648 33.328 70.2222 33.9707 69.3959 33.9707C68.5695 33.9707 67.9269 33.328 67.9269 32.5017C68.0187 31.6754 68.6614 31.0327 69.3959 31.0327Z" fill="#B5D9E2"/>
<path d="M71.8749 35.9905C72.334 35.9905 72.793 36.3577 72.793 36.9086C72.793 37.3677 72.4258 37.8267 71.8749 37.8267C71.324 37.8267 70.9568 37.4595 70.9568 36.9086C70.9568 36.4495 71.324 35.9905 71.8749 35.9905Z" fill="#B5D9E2"/>
<path d="M62.6934 17.5364C63.1525 17.5364 63.6115 17.72 63.7952 18.0873L62.877 18.5463H73.7109C73.8945 17.9954 74.4454 17.5364 75.0881 17.5364C75.9144 17.5364 76.4653 18.1791 76.4653 18.9136C76.4653 19.7399 75.8226 20.2908 75.0881 20.2908C74.629 20.2908 74.17 20.0153 73.8946 19.6481L74.8127 19.189H63.9787C63.7951 19.7399 63.2442 20.1989 62.6016 20.1989C61.7752 20.1989 61.2244 19.5563 61.2244 18.8218C61.2244 18.1791 61.8671 17.5364 62.6934 17.5364Z" fill="#B5D9E2"/>
<path d="M135.134 24.6974C135.685 24.1465 136.327 23.8711 137.062 23.8711C137.796 23.8711 138.439 24.1465 138.99 24.6974C139.541 25.2483 139.816 25.891 139.816 26.6255C139.816 27.36 139.541 28.0027 138.99 28.5535C138.439 29.1044 137.796 29.3799 137.062 29.3799C136.327 29.3799 135.685 29.1044 135.134 28.5535C134.583 28.0027 134.308 27.36 134.308 26.6255C134.399 25.891 134.675 25.2483 135.134 24.6974ZM135.318 28.4617C135.777 28.9208 136.419 29.1962 137.062 29.1962C137.796 29.1962 138.347 28.9208 138.806 28.4617C139.265 28.0027 139.541 27.36 139.541 26.6255C139.541 25.891 139.265 25.3401 138.806 24.7892C138.347 24.3302 137.705 24.0547 137.062 24.0547C136.327 24.0547 135.777 24.3302 135.318 24.7892C134.858 25.2483 134.583 25.891 134.583 26.6255C134.583 27.36 134.858 27.9109 135.318 28.4617ZM138.256 26.1664C138.256 26.5337 138.072 26.8091 137.705 26.9927L138.256 28.0945H137.705L137.154 27.0845H137.062H136.695V28.0945H136.236V25.2483H137.062C137.429 25.2483 137.705 25.3401 137.888 25.5237C138.164 25.6155 138.256 25.891 138.256 26.1664ZM136.787 25.7073V26.6255H137.246C137.429 26.6255 137.521 26.6255 137.705 26.5337C137.797 26.4418 137.888 26.35 137.888 26.1664C137.888 26.0746 137.797 25.891 137.705 25.7992C137.613 25.7073 137.337 25.7073 137.154 25.7073H136.787Z" fill="white"/>
<path d="M137.154 29.4717C136.419 29.4717 135.685 29.1962 135.134 28.6454C134.583 28.0945 134.308 27.4518 134.308 26.6255C134.308 25.891 134.583 25.1565 135.134 24.6056C135.685 24.0547 136.327 23.7793 137.154 23.7793C137.888 23.7793 138.623 24.0547 139.174 24.6056C139.725 25.1565 140 25.7992 140 26.6255C140 27.36 139.725 28.0945 139.174 28.6454C138.531 29.1962 137.888 29.4717 137.154 29.4717ZM135.226 24.6974C134.675 25.2483 134.399 25.891 134.399 26.6255C134.399 27.36 134.675 28.0027 135.226 28.5536C135.777 29.1044 136.419 29.3799 137.154 29.3799C137.888 29.3799 138.531 29.1044 139.082 28.5536C139.633 28.0027 139.908 27.36 139.908 26.6255C139.908 25.891 139.633 25.2483 139.082 24.6974C138.531 24.1465 137.888 23.8711 137.154 23.8711C136.419 23.9629 135.777 24.2384 135.226 24.6974ZM137.154 29.2881C136.419 29.2881 135.868 29.0126 135.318 28.5536C134.767 28.0027 134.583 27.4518 134.583 26.7173C134.583 25.9828 134.858 25.3401 135.318 24.881C135.868 24.3302 136.419 24.1465 137.154 24.1465C137.888 24.1465 138.531 24.422 138.99 24.881C139.541 25.4319 139.725 25.9828 139.725 26.7173C139.725 27.4518 139.449 28.0945 138.99 28.5536C138.439 29.0126 137.796 29.2881 137.154 29.2881ZM137.154 24.1465C136.511 24.1465 135.868 24.422 135.409 24.881C134.95 25.3401 134.675 25.9828 134.675 26.6255C134.675 27.2682 134.95 27.9109 135.409 28.3699C135.868 28.829 136.511 29.1044 137.154 29.1044C137.796 29.1044 138.439 28.829 138.898 28.3699C139.357 27.9109 139.633 27.2682 139.633 26.6255C139.633 25.9828 139.357 25.3401 138.898 24.881C138.347 24.422 137.796 24.1465 137.154 24.1465ZM138.439 28.0945H137.796L137.246 27.0846H136.878V28.0945H136.236V25.1565H137.154C137.521 25.1565 137.796 25.2483 137.98 25.4319C138.164 25.6155 138.256 25.891 138.256 26.1664C138.256 26.5337 138.072 26.9009 137.796 26.9927L138.439 28.0945ZM137.796 28.0027H138.164L137.613 26.9009H137.705C137.98 26.8091 138.164 26.5337 138.164 26.1664C138.164 25.891 138.072 25.7074 137.888 25.6155C137.705 25.4319 137.429 25.3401 137.154 25.3401H136.328V28.0027H136.695V26.9927H137.246L137.796 28.0027ZM137.154 26.6255H136.695V25.6155H137.154C137.337 25.6155 137.521 25.7074 137.613 25.7074C137.705 25.7992 137.796 25.891 137.796 26.0746C137.796 26.2582 137.705 26.35 137.613 26.4419C137.521 26.6255 137.337 26.6255 137.154 26.6255ZM136.787 26.5337H137.154C137.337 26.5337 137.429 26.5337 137.521 26.4419C137.613 26.35 137.613 26.2582 137.613 26.1664C137.613 26.0746 137.613 25.9828 137.521 25.891C137.429 25.7992 137.337 25.7992 137.154 25.7992H136.787V26.5337Z" fill="white"/>
</svg>
