<svg width="448" height="143" viewBox="0 0 448 143" fill="none" xmlns="http://www.w3.org/2000/svg">
<path d="M432.3 80.4001C434 78.7001 436.2 77.8 438.6 77.8C441.1 77.8 443.2 78.7001 444.9 80.4001C446.6 82.1001 447.5 84.3001 447.5 86.7001C447.5 89.2001 446.6 91.3001 444.9 93.0001C443.2 94.7001 441 95.6001 438.6 95.6001C436.1 95.6001 434 94.7001 432.3 93.0001C430.6 91.3001 429.7 89.1001 429.7 86.7001C429.7 84.3001 430.6 82.1001 432.3 80.4001ZM432.9 92.6001C434.5 94.2001 436.4 95.0001 438.7 95.0001C441 95.0001 442.9 94.2001 444.5 92.6001C446.1 91.0001 446.9 89.0001 446.9 86.7001C446.9 84.4001 446.1 82.5 444.5 80.8C442.9 79.1 441 78.4001 438.7 78.4001C436.4 78.4001 434.5 79.2 432.9 80.8C431.3 82.4 430.5 84.4001 430.5 86.7001C430.5 89.0001 431.3 91.0001 432.9 92.6001ZM442.2 85.1001C442.2 86.4001 441.6 87.3001 440.5 87.7001L442.4 91.3H440.7L439 88.0001H438.8H437.5V91.3H436V82.1001H438.8C439.9 82.1001 440.7 82.4001 441.3 83.0001C441.9 83.6001 442.2 84.3001 442.2 85.1001ZM437.5 83.6001V86.5001H438.9C439.5 86.5001 439.9 86.4001 440.2 86.1001C440.5 85.8001 440.7 85.5001 440.7 85.0001C440.7 84.6001 440.5 84.2001 440.2 83.9001C439.9 83.6001 439.4 83.5001 438.9 83.5001H437.5V83.6001Z" fill="white"/>
<path d="M438.7 95.9C436.2 95.9 434 95 432.2 93.2C430.4 91.4 429.5 89.2 429.5 86.7C429.5 84.2 430.4 82 432.2 80.2C434 78.4 436.2 77.5 438.7 77.5C441.2 77.5 443.4 78.4 445.2 80.2C447 82 447.9 84.2 447.9 86.7C447.9 89.2 447 91.4 445.2 93.2C443.4 95 441.2 95.9 438.7 95.9ZM432.5 80.6C430.8 82.3 429.9 84.4 429.9 86.8C429.9 89.2 430.8 91.3 432.5 93C434.2 94.7 436.3 95.6 438.7 95.6C441.1 95.6 443.2 94.7 444.9 93C446.6 91.3 447.5 89.2 447.5 86.8C447.5 84.4 446.6 82.3 444.9 80.6C443.2 78.9 441.1 78 438.7 78C436.3 78 434.2 78.9 432.5 80.6ZM438.7 95.2C436.4 95.2 434.4 94.4 432.7 92.7C431.1 91.1 430.2 89 430.2 86.7C430.2 84.4 431 82.3 432.7 80.7C434.3 79.1 436.3 78.2 438.7 78.2C441 78.2 443 79 444.7 80.7C446.3 82.3 447.2 84.4 447.2 86.7C447.2 89 446.4 91.1 444.7 92.7C443 94.4 441 95.2 438.7 95.2ZM438.7 78.7C436.5 78.7 434.6 79.5 433.1 81C431.5 82.6 430.8 84.5 430.8 86.7C430.8 88.9 431.6 90.8 433.1 92.4C434.7 94 436.6 94.7 438.7 94.7C440.9 94.7 442.8 93.9 444.3 92.4C445.9 90.8 446.6 88.9 446.6 86.7C446.6 84.5 445.8 82.6 444.3 81C442.8 79.5 440.9 78.7 438.7 78.7ZM442.9 91.5H440.7L440.6 91.4L438.9 88.3H437.7V91.6H435.7V82H438.7C439.8 82 440.8 82.3 441.4 82.9C442.1 83.5 442.4 84.3 442.4 85.2C442.4 86.5 441.9 87.4 440.8 88L442.9 91.5ZM440.9 91.1H442.1L440.2 87.6L440.4 87.5C441.4 87.1 441.9 86.3 441.9 85.1C441.9 84.3 441.6 83.7 441.1 83.2C440.5 82.7 439.7 82.4 438.7 82.4H436.1V91.1H437.2V87.8H439.1L439.2 87.9L440.9 91.1ZM438.9 86.8H437.3V83.4H438.9C439.5 83.4 440 83.5 440.4 83.8C440.8 84.1 441 84.5 441 85C441 85.5 440.8 85.9 440.4 86.2C440 86.6 439.5 86.8 438.9 86.8ZM437.7 86.3H438.9C439.4 86.3 439.8 86.2 440.1 86C440.4 85.8 440.5 85.5 440.5 85.1C440.5 84.7 440.4 84.4 440.1 84.2C439.8 84 439.4 83.9 438.9 83.9H437.7V86.3Z" fill="white"/>
<path d="M196.1 45.3C196.1 46.9 197.4 48.3 199.1 48.3C200.3 48.3 201.3 47.6 201.7 46.6H235L230.1 48.5C231.1 49.8 232.6 50.7 234.4 50.7C237.4 50.7 239.8 48.3 239.8 45.3C239.8 42.3 237.4 39.9 234.4 39.9C231.9 39.9 229.8 41.6 229.2 44H218.1H202.9L198.9 44.1L201.1 43.1C200.6 42.6 199.9 42.3 199.1 42.3C197.5 42.3 196.1 43.7 196.1 45.3Z" fill="white"/>
<path d="M226.1 36.3C224.1 36.3 222.4 35.3 221.5 33.7L226.1 32.2H208.5C207.8 32.2 207.2 31.6 207.2 30.9C207.2 30.2 207.8 29.6 208.5 29.6H220.9C221.5 27.3 223.6 25.5 226.1 25.5C229.1 25.5 231.5 27.9 231.5 30.9C231.5 33.9 229.1 36.3 226.1 36.3Z" fill="white"/>
<path d="M215.6 22.5C218.14 22.5 220.2 20.4405 220.2 17.9C220.2 15.3595 218.14 13.3 215.6 13.3C213.059 13.3 211 15.3595 211 17.9C211 20.4405 213.059 22.5 215.6 22.5Z" fill="white"/>
<path d="M207.7 6.30005C209.357 6.30005 210.7 4.9569 210.7 3.30005C210.7 1.64319 209.357 0.300049 207.7 0.300049C206.043 0.300049 204.7 1.64319 204.7 3.30005C204.7 4.9569 206.043 6.30005 207.7 6.30005Z" fill="white"/>
<path d="M194.7 78.2001C194.7 81.2001 197.1 83.6001 200.1 83.6001C202.6 83.6001 204.7 81.9001 205.3 79.5001H216.4H221.4H225.5L223.2 80.2001C223.7 80.8001 224.5 81.2001 225.4 81.2001C227 81.2001 228.4 79.9001 228.4 78.2001C228.4 76.6001 227.1 75.2001 225.4 75.2001C224.2 75.2001 223.2 75.9001 222.8 76.9001H199.5L204.4 75.0001C203.4 73.7001 201.9 72.8 200.1 72.8C197.1 72.8 194.7 75.2001 194.7 78.2001Z" fill="white"/>
<path d="M208.4 87.2001C210.4 87.2001 212.1 88.2 213 89.8L208.4 91.3H226C226.7 91.3 227.3 91.9001 227.3 92.6001C227.3 93.3001 226.7 93.9001 226 93.9001H213.6C213 96.2001 210.9 98.0001 208.4 98.0001C205.4 98.0001 203 95.6001 203 92.6001C203.1 89.6001 205.5 87.2001 208.4 87.2001Z" fill="white"/>
<path d="M219 100.9C221.6 100.9 223.6 103 223.6 105.5C223.6 108.1 221.5 110.1 219 110.1C216.4 110.1 214.4 108 214.4 105.5C214.3 103 216.4 100.9 219 100.9Z" fill="white"/>
<path d="M226.9 117.2C228.5 117.2 229.9 118.5 229.9 120.2C229.9 121.8 228.6 123.2 226.9 123.2C225.3 123.2 223.9 121.9 223.9 120.2C223.9 118.5 225.2 117.2 226.9 117.2Z" fill="white"/>
<path d="M197.1 57.2001C198.6 57.2001 200 57.9001 200.8 59.1001L197.8 60.5001H233C233.6 58.6001 235.3 57.2001 237.4 57.2001C240 57.2001 242 59.3 242 61.8C242 64.4 239.9 66.4001 237.4 66.4001C235.8 66.4001 234.5 65.6001 233.6 64.5001L236.7 63.1001H201.5C200.9 65.0001 199.2 66.4001 197.1 66.4001C194.6 66.4001 192.5 64.3 192.5 61.8C192.5 59.3 194.6 57.2001 197.1 57.2001Z" fill="white"/>
<path d="M45.5001 141H37.1001L7.20007 110.1V141H0.800049V77.1001H7.20007V106.3L36.2001 77.1001H44.6001L13.9001 108.1L45.5001 141Z" fill="white"/>
<path d="M102.2 132.5C95.8001 138.9 88.0001 142.1 78.7001 142.1C69.5001 142.1 61.6001 138.9 55.2001 132.5C48.8001 126.1 45.6001 118.3 45.6001 109.1C45.6001 99.9001 48.8001 92.1001 55.2001 85.7001C61.6001 79.3001 69.4001 76.1001 78.7001 76.1001C88.0001 76.1001 95.8001 79.3001 102.2 85.7001C108.6 92.1001 111.8 99.9001 111.8 109.1C111.8 118.2 108.6 126 102.2 132.5ZM59.8001 128.1C64.9001 133.3 71.2001 135.9 78.8001 135.9C86.4001 135.9 92.7001 133.3 97.8001 128.1C102.9 122.9 105.5 116.6 105.5 109.1C105.5 101.6 102.9 95.3001 97.8001 90.1001C92.7001 84.9001 86.4001 82.3001 78.8001 82.3001C71.2001 82.3001 64.9001 84.9001 59.8001 90.1001C54.7001 95.3001 52.1001 101.6 52.1001 109.1C52.1001 116.5 54.7001 122.9 59.8001 128.1Z" fill="white"/>
<path d="M146.3 77.1001C155 77.1001 162.2 80.2001 167.9 86.4001C173.6 92.6001 176.4 100.1 176.4 109.1C176.4 118 173.6 125.6 167.9 131.8C162.2 138 155 141 146.3 141H121.7V77.1001H146.3ZM146.3 135C153.3 135 159 132.5 163.5 127.5C168 122.5 170.2 116.4 170.2 109.1C170.2 101.8 168 95.6001 163.5 90.7001C159 85.7001 153.3 83.2001 146.3 83.2001H128V135H146.3Z" fill="white"/>
<path d="M276.9 141L261.9 115.4H244V141H237.6V77.1001H263.2C268.5 77.1001 273 79.0001 276.8 82.7001C280.5 86.4001 282.4 91.0001 282.4 96.3001C282.4 100.6 281.1 104.5 278.5 107.8C275.9 111.1 272.6 113.4 268.6 114.6L284.2 141H276.9ZM244 83.1001V109.4H263.2C266.7 109.4 269.7 108.1 272.2 105.5C274.7 102.9 275.9 99.8001 275.9 96.2001C275.9 92.5001 274.7 89.4001 272.2 86.9001C269.7 84.3001 266.7 83.1001 263.2 83.1001H244Z" fill="white"/>
<path d="M350.6 77.1001V141H344.2V86.8001L321.8 124.2H320.9L298.5 86.8001V141H292.1V77.1001H300L321.3 112.7L342.6 77.1001H350.6Z" fill="white"/>
<path d="M362.1 77.1001H368.5V141H362.1V77.1001Z" fill="white"/>
<path d="M427 141H419.7L402.4 113.7L385 141H377.7L398.7 108L379 77.1001H386.2L402.3 102.3L418.4 77.1001H425.6L406 108L427 141Z" fill="white"/>
<path d="M191.4 111.8H211.3L206.8 105.8H191.4V85.0001L185.6 77.1001H185.1V141H222.5V135H191.4V111.8Z" fill="white"/>
</svg>
