<svg width="28" height="23" viewBox="0 0 28 23" fill="none" xmlns="http://www.w3.org/2000/svg">
<path d="M27.3999 1.55477C26.8999 3.75477 26.4999 6.15477 25.9999 8.55477C25.1999 12.6548 24.3999 16.755 23.4999 20.755C23.0999 22.955 22.1999 23.2548 20.3999 22.0548C18.7999 20.9548 17.1998 19.7548 15.6998 18.5548C14.9998 17.9548 14.4999 18.055 13.8999 18.755C13.3999 19.355 12.7998 19.8552 12.1998 20.4552C10.4998 22.0552 9.99983 21.8549 9.19983 19.6549C8.59983 17.9549 7.99985 16.3549 7.59985 14.6549C7.29985 13.6549 6.79993 13.1552 5.79993 12.9552C4.49993 12.6552 3.1999 12.255 1.8999 11.755C1.2999 11.555 0.899902 10.9548 0.399902 10.5548C0.899902 10.1548 1.2999 9.45496 1.8999 9.25496C5.8999 7.65496 9.99988 6.15486 13.9999 4.65486C17.7999 3.25486 21.4999 1.75516 25.2999 0.455156C26.7999 -0.344844 27.3999 0.0547658 27.3999 1.55477ZM22.3999 4.45516C22.2999 4.35516 22.2998 4.25486 22.1998 4.15486C17.5998 7.05486 12.9999 9.95506 8.3999 12.8551C9.0999 14.8551 9.69993 16.7549 10.2999 18.6549C10.5999 18.0549 10.6998 17.5548 10.6998 17.0548C10.6998 15.5548 11.2999 14.3551 12.4999 13.3551C15.8999 10.4551 19.0999 7.45516 22.3999 4.45516Z" fill="#292F3E"/>
</svg>
