<svg width="132" height="70" viewBox="0 0 132 70" fill="none" xmlns="http://www.w3.org/2000/svg">
<path d="M52.7537 28.3348C52.7537 38.8856 46.5921 48.0857 37.645 52.306C37.3074 51.884 36.8854 51.3775 36.4634 50.9555L32.5807 47.0729L28.1072 51.5465L30.977 54.4162C29.5421 54.6694 27.9384 54.8382 26.4191 54.8382C24.8153 54.8382 23.296 54.6694 21.7767 54.4162C26.6723 49.5206 31.5678 44.6252 36.4634 39.7296C43.1314 33.0616 43.4691 23.9456 36.7166 17.1931L32.9183 13.3948L28.4448 17.8684L32.2431 21.6666C36.6322 26.0557 36.2946 31.0358 31.9899 35.2561C26.6723 40.5737 21.4391 45.8913 16.1215 51.1244C15.7839 51.4621 15.3619 51.884 15.0243 52.306C6.16163 48.0857 0 38.9699 0 28.5036C0 17.9529 6.16163 8.75248 15.1087 4.53218C15.4463 4.95421 15.8683 5.46073 16.2903 5.88276L20.173 9.76551L24.6465 5.29196L21.7767 2.42203C23.2116 2.16881 24.8153 2 26.3346 2C27.9384 2 29.4577 2.16881 30.977 2.42203C26.0814 7.31758 21.1859 12.2132 16.2903 17.1088C9.62227 23.7769 9.28466 32.8927 16.0371 39.6451L19.8354 43.4434L24.3089 38.9699L20.5106 35.1716C16.2903 30.9513 16.628 25.7182 20.7638 21.5823C26.0814 16.2648 31.3146 11.0316 36.6322 5.71399C36.9698 5.37636 37.3918 4.95421 37.7295 4.53218C46.5921 8.75248 52.7537 17.7841 52.7537 28.3348Z" fill="url(#paint0_linear_655_1529)"/>
<path d="M66.8 18H64.96L58.4 11.22V18H57V4H58.4V10.4L64.76 4H66.6L59.88 10.8L66.8 18ZM78.9902 16.14C77.5902 17.54 75.8768 18.24 73.8502 18.24C71.8235 18.24 70.1102 17.54 68.7102 16.14C67.3102 14.7267 66.6102 13.0133 66.6102 11C66.6102 8.98667 67.3102 7.28 68.7102 5.88C70.1102 4.46667 71.8235 3.76 73.8502 3.76C75.8768 3.76 77.5902 4.46667 78.9902 5.88C80.3902 7.28 81.0902 8.98667 81.0902 11C81.0902 13.0133 80.3902 14.7267 78.9902 16.14ZM69.6902 15.18C70.8102 16.3133 72.1968 16.88 73.8502 16.88C75.5035 16.88 76.8902 16.3133 78.0102 15.18C79.1302 14.0333 79.6902 12.64 79.6902 11C79.6902 9.36 79.1302 7.97333 78.0102 6.84C76.8902 5.69333 75.5035 5.12 73.8502 5.12C72.1968 5.12 70.8102 5.69333 69.6902 6.84C68.5702 7.97333 68.0102 9.36 68.0102 11C68.0102 12.64 68.5702 14.0333 69.6902 15.18ZM88.8844 4C90.7911 4 92.3644 4.68 93.6044 6.04C94.8577 7.38667 95.4844 9.04 95.4844 11C95.4844 12.96 94.8577 14.62 93.6044 15.98C92.3644 17.3267 90.7911 18 88.8844 18H83.4844V4H88.8844ZM88.8844 16.68C90.4177 16.68 91.6711 16.1333 92.6444 15.04C93.6311 13.9467 94.1244 12.6 94.1244 11C94.1244 9.4 93.6311 8.05333 92.6444 6.96C91.6711 5.86667 90.4177 5.32 88.8844 5.32H84.8844V16.68H88.8844ZM99.2789 16.68H106.079V18H97.8789V4H105.979V5.32H99.2789V10.28H105.479V11.6H99.2789V16.68ZM117.084 18L113.804 12.4H109.884V18H108.484V4H114.084C115.244 4 116.231 4.41333 117.044 5.24C117.871 6.05333 118.284 7.04 118.284 8.2C118.284 9.14667 117.998 9.99333 117.424 10.74C116.864 11.4733 116.144 11.9667 115.264 12.22L118.684 18H117.084ZM109.884 5.32V11.08H114.084C114.858 11.08 115.518 10.8 116.064 10.24C116.611 9.66667 116.884 8.98667 116.884 8.2C116.884 7.4 116.611 6.72 116.064 6.16C115.518 5.6 114.858 5.32 114.084 5.32H109.884Z" fill="#1F242F"/>
<path d="M121.692 0V0.84406H120.51V3.54501H119.582V0.84406H118.4V0H121.692Z" fill="#1F242F"/>
<path d="M126.081 0V3.54501H125.152V1.43486L124.224 2.86993H124.14L123.211 1.43486V3.54501H122.283V0H123.211L124.224 1.51935L125.237 0H126.081Z" fill="#1F242F"/>
<path d="M83.2 24V52H80.4V28.24L70.6 44.64H70.2L60.4 28.24V52H57.6V24H61.08L70.4 39.6L79.72 24H83.2ZM89.5922 24H92.3922V52H89.5922V24ZM118.011 52H114.811L107.211 40.04L99.611 52H96.411L105.611 37.56L97.011 24H100.171L107.211 35.04L114.251 24H117.411L108.811 37.56L118.011 52Z" fill="#1F242F"/>
<defs>
<linearGradient id="paint0_linear_655_1529" x1="-5.74493" y1="-29.2619" x2="104.153" y2="168.025" gradientUnits="userSpaceOnUse">
<stop stop-color="#5C5C5C"/>
<stop offset="0.0347655" stop-color="#848484"/>
<stop offset="0.0844982" stop-color="#B7B7B7"/>
<stop offset="0.1221" stop-color="#D7D7D7"/>
<stop offset="0.1429" stop-color="#E3E3E3"/>
<stop offset="0.3077" stop-color="#545454"/>
<stop offset="0.5055" stop-color="#E6E6E6"/>
<stop offset="0.6648" stop-color="#525252"/>
<stop offset="0.9011" stop-color="#DEDEDE"/>
<stop offset="1" stop-color="#545454"/>
</linearGradient>
</defs>
</svg>
