<svg width="40" height="40" viewBox="0 0 40 40" fill="none" xmlns="http://www.w3.org/2000/svg">
<path d="M20 0C8.97091 0 0 8.97091 0 20C0 31.0509 9.01455 40 20 40C31 40 40 31.0364 40 20C40 8.97091 31.0291 0 20 0ZM7.00727 33.2146C7.29091 31.7127 7.54909 30.9018 7.65454 30.7382C8.07272 30.1818 10.9855 27.7346 15.3673 26.0837V26.5091C15.3745 29.6691 17.7236 31.32 20.04 31.32H20.0436C22.3709 31.3164 24.7273 29.6618 24.7273 26.5018V26.1236C29.04 27.7564 31.9164 30.1855 32.3309 30.7346C32.4436 30.9055 32.7018 31.7164 32.9855 33.2182C29.6364 36.5091 25.0509 38.5455 19.9927 38.5455C14.9455 38.5455 10.3564 36.5091 7.00727 33.2146ZM14.0691 11.0109C15.4436 9.16365 17.4691 8.17092 20.08 8.05455C22.6618 8.16728 24.6655 9.15638 26.0327 10.9891C28.3236 14.0582 28.8509 19.5091 27.4982 25.7309C26.6509 25.32 25.7236 24.9273 24.7345 24.5782V23.2727C25.1091 22.7782 25.44 22.2255 25.6909 21.6109L25.7418 21.4836V21.3455C25.7564 19.0546 24.6 15.6036 23.6036 13.3418L23.1491 12.3127L22.3964 13.1491C21.4909 14.1564 20.2364 14.8073 19.0255 15.4364C16.7491 16.6218 14.3964 17.8437 14.3673 21.3346V21.4764L14.4218 21.6109C14.6618 22.2109 14.9927 22.76 15.3709 23.2655V24.5382C14.3782 24.8873 13.4545 25.2764 12.6036 25.6873C11.2582 19.4982 11.7855 14.0764 14.0691 11.0109ZM19.9927 25.0073C18.9382 24.7309 16.7164 23.2545 15.8255 21.2036C15.9091 18.6982 17.5855 17.8255 19.6982 16.7273C20.7127 16.2 21.7564 15.6582 22.6764 14.8909C23.5164 16.9927 24.2582 19.52 24.2873 21.1927C23.2509 23.5818 20.6982 24.8218 19.9927 25.0073ZM19.8509 26.4655L20.0582 26.5018L20.1891 26.4509C20.7382 26.3309 22.0327 25.7855 23.2764 24.7673V25.0873V26.4982C23.2764 28.8073 21.6 29.8618 20.0436 29.8618H20.04C18.44 29.8618 16.8255 28.8255 16.8218 26.4946V24.7964C17.9418 25.7382 19.1273 26.3309 19.8509 26.4655ZM34.2073 31.9018C34.0036 31.0037 33.7636 30.2073 33.5055 29.8655C33.0982 29.3236 31.4255 27.8546 28.8291 26.4218C30.3745 19.64 29.7855 13.5891 27.1964 10.1236C25.5455 7.91274 23.1636 6.73092 20.1091 6.60365H20.08H20.0509C16.9636 6.73092 14.56 7.92365 12.9018 10.1455C10.3236 13.6036 9.73455 19.6218 11.2727 26.3746C8.61455 27.8291 6.90545 29.3236 6.49818 29.8691C6.24 30.2146 6 31.0109 5.79636 31.9055C3.09091 28.6837 1.45819 24.5309 1.45819 20.0036C1.45819 9.77818 9.77818 1.45819 20.0036 1.45819C30.2291 1.45819 38.5491 9.77818 38.5491 20.0036C38.5455 24.5273 36.9127 28.6764 34.2073 31.9018Z" fill="white"/>
</svg>
