<svg width="30" height="18" viewBox="0 0 30 18" fill="none" xmlns="http://www.w3.org/2000/svg">
<path d="M10.2999 1.55449C10.6999 1.35449 11.1999 0.954785 11.7999 0.854785C13.2999 0.754785 14.7999 0.754785 16.2999 0.854785C17.2999 0.854785 17.7999 1.55449 17.7999 2.55449C17.7999 3.95449 17.6999 5.45478 17.7999 6.85478C17.7999 7.45478 17.9998 8.05449 18.1998 9.05449C18.9998 8.35449 19.4999 7.95488 19.8999 7.45488C20.8999 5.85488 21.7998 4.15488 22.5998 2.45488C22.9998 1.75488 23.3999 1.35479 24.2999 1.35479C25.6999 1.35479 27.0999 1.35479 28.4999 1.35479C29.7999 1.35479 30.1998 1.95449 29.5998 3.05449C28.7998 4.55449 27.6998 6.05488 26.6998 7.45488C26.3998 7.95488 26.0998 8.35469 25.6998 8.75469C24.9998 9.65469 24.9999 10.3547 25.8999 11.2547C27.0999 12.3547 28.1998 13.5548 29.1998 14.8548C29.4998 15.2548 29.7998 16.1545 29.5998 16.5545C29.3998 16.9545 28.5999 17.0546 27.9999 17.1546C27.6999 17.2546 27.2999 17.1547 26.8999 17.2547C24.2999 17.6547 22.0999 17.0546 20.4999 14.6546C20.2999 14.3546 19.9998 14.1548 19.6998 13.8548C18.9998 13.2548 18.3999 13.3547 17.9999 14.2547V14.3548C17.6999 15.2548 17.5998 16.7548 17.0998 16.8548C15.7998 17.1548 14.2999 17.1548 12.9999 16.8548C10.6999 16.4548 8.7999 15.1549 7.2999 13.4549C4.4999 10.2549 2.69988 6.55469 0.899878 2.75469C0.499878 1.75469 0.799878 1.25469 1.89988 1.25469H1.99985C4.89985 0.854687 7.2998 1.25459 8.1998 4.65459C8.4998 5.85459 9.59988 6.95449 10.3999 8.05449C10.5999 8.35449 10.9999 8.55449 11.2999 8.55449C11.4999 8.45449 11.7999 8.05469 11.7999 7.75469C11.8999 6.25469 11.9999 4.75479 11.7999 3.35479C11.6999 2.75479 10.8999 2.25449 10.2999 1.55449Z" fill="#292F3E"/>
</svg>
