<svg width="35" height="35" viewBox="0 0 35 35" fill="none" xmlns="http://www.w3.org/2000/svg">
<g filter="url(#filter0_d_602_1407)">
<path d="M4.19995 26.9548C4.89995 24.9548 5.39994 23.2547 5.99994 21.6547C6.39994 20.6547 6.39996 19.7547 5.89996 18.6547C2.79996 11.8547 6.19991 3.95489 13.0999 1.55489C20.0999 -0.945114 27.8 3.05484 29.7 10.2548C31 15.2548 29.6 19.5548 25.9 22.9548C22.1 26.3548 17.5999 27.0548 12.7999 25.2548C11.6999 24.8548 10.8 24.7547 9.69995 25.1547C7.99995 25.8547 6.29995 26.2548 4.19995 26.9548ZM7.69995 23.2548C8.49995 23.1548 8.79991 23.0548 9.09991 22.9548C10.6999 22.2548 12.0999 22.3547 13.7999 23.1547C18.1999 25.0547 23.3999 23.3548 26.0999 19.2548C28.6999 15.2548 28.2999 9.95479 24.9999 6.45479C21.5999 2.85479 16.2999 2.15474 12.0999 4.65474C7.99991 7.15474 5.99995 12.1547 7.69995 16.6547C8.49995 18.8547 9.39995 20.8548 7.69995 23.2548Z" fill="#292F3E"/>
</g>
<g filter="url(#filter1_d_602_1407)">
<path d="M14.1 12.555C15.6 13.855 16.8 15.0548 18.1 16.1548C18.7 16.7548 19.3 16.555 19.9 15.855C20.3 15.455 21.1 15.0549 21.4 15.2549C22.4 15.6549 23.4 16.255 23.9 17.055C24.1 17.355 23.2 18.7549 22.6 19.2549C21.9 19.7549 20.7 19.8548 19.9 19.6548C15.8 18.6548 13 15.855 11.4 12.055C10.8 10.555 10.9 9.05501 12 7.85501C13 6.75501 14.2 6.95501 14.8 8.35501C15.4 9.75501 16.3 11.155 14.1 12.555Z" fill="#292F3E"/>
</g>
<defs>
<filter id="filter0_d_602_1407" x="0.199951" y="0.80835" width="33.9751" height="34.1465" filterUnits="userSpaceOnUse" color-interpolation-filters="sRGB">
<feFlood flood-opacity="0" result="BackgroundImageFix"/>
<feColorMatrix in="SourceAlpha" type="matrix" values="0 0 0 0 0 0 0 0 0 0 0 0 0 0 0 0 0 0 127 0" result="hardAlpha"/>
<feOffset dy="4"/>
<feGaussianBlur stdDeviation="2"/>
<feComposite in2="hardAlpha" operator="out"/>
<feColorMatrix type="matrix" values="0 0 0 0 0 0 0 0 0 0 0 0 0 0 0 0 0 0 0.25 0"/>
<feBlend mode="normal" in2="BackgroundImageFix" result="effect1_dropShadow_602_1407"/>
<feBlend mode="normal" in="SourceGraphic" in2="effect1_dropShadow_602_1407" result="shape"/>
</filter>
<filter id="filter1_d_602_1407" x="7.03516" y="7.14917" width="20.8933" height="20.6023" filterUnits="userSpaceOnUse" color-interpolation-filters="sRGB">
<feFlood flood-opacity="0" result="BackgroundImageFix"/>
<feColorMatrix in="SourceAlpha" type="matrix" values="0 0 0 0 0 0 0 0 0 0 0 0 0 0 0 0 0 0 127 0" result="hardAlpha"/>
<feOffset dy="4"/>
<feGaussianBlur stdDeviation="2"/>
<feComposite in2="hardAlpha" operator="out"/>
<feColorMatrix type="matrix" values="0 0 0 0 0 0 0 0 0 0 0 0 0 0 0 0 0 0 0.25 0"/>
<feBlend mode="normal" in2="BackgroundImageFix" result="effect1_dropShadow_602_1407"/>
<feBlend mode="normal" in="SourceGraphic" in2="effect1_dropShadow_602_1407" result="shape"/>
</filter>
</defs>
</svg>
